<?xml version="1.0" standalone="no"?>
<!DOCTYPE svg PUBLIC "-//W3C//DTD SVG 20010904//EN"
 "http://www.w3.org/TR/2001/REC-SVG-20010904/DTD/svg10.dtd">
<svg version="1.0" xmlns="http://www.w3.org/2000/svg"
 width="120.000000pt" height="120.000000pt" viewBox="0 0 120.000000 120.000000"
 preserveAspectRatio="xMidYMid meet">
<metadata>
Created by potrace 1.11, written by Peter Selinger 2001-2013
</metadata>
<g transform="translate(0.000000,120.000000) scale(0.100000,-0.100000)"
fill="#000000" stroke="none">
<path d="M405 1125 c-25 -24 -25 -24 -25 -238 0 -210 0 -214 23 -235 17 -16
36 -22 70 -22 l47 0 0 -80 c0 -44 4 -80 9 -80 5 0 42 36 82 80 l72 80 213 0
c201 0 215 1 234 20 19 19 20 33 20 239 l0 220 -26 20 c-26 20 -38 21 -361 21
l-334 0 -24 -25z m510 -95 c11 -13 31 -20 53 -20 l34 0 -51 -48 c-28 -26 -51
-56 -51 -65 0 -10 -19 -37 -43 -61 -69 -68 -149 -80 -239 -35 -52 27 -52 34 1
35 25 1 60 7 76 14 l30 12 -26 21 c-33 27 -79 94 -79 115 0 13 2 13 18 -1 26
-24 103 -57 134 -57 24 0 27 3 19 23 -9 25 -5 45 17 70 21 24 84 23 107 -3z"/>
<path d="M168 803 l-148 -4 0 -39 c0 -38 1 -39 38 -42 l37 -3 6 -200 c3 -110
6 -200 7 -201 1 0 13 -14 27 -30 l25 -29 147 -5 148 -5 0 -75 0 -75 -87 -3
-88 -3 0 -29 0 -30 210 0 210 0 0 30 0 29 -87 3 -88 3 0 75 0 75 150 5 151 5
29 30 c29 28 30 31 35 157 l5 128 -32 0 -33 0 0 -108 c0 -165 29 -152 -329
-152 -241 0 -301 3 -317 14 -17 13 -19 30 -22 205 l-3 191 80 0 81 0 0 45 c0
25 -1 44 -2 43 -2 -1 -69 -4 -150 -5z"/>
</g>
</svg>
